# xmcd
#
# Track frame offsets:
# 150
# 17712
# 35693
# 50839
# 74488
# 96234
# 123323
# 143784
# 161628
# 182487
# 212511
#
# Disc length: 3055 seconds
#
# Revision: 1
# Processed by: cddbd v1.5.2PL0 Copyright (c) Steve Scherf et al.
# Submitted via: CedeCatalogueitor 2.6.0.6 http://personales.ya.com/cdcatalogueitor
#
DISCID=9e0bed0b
DTITLE=Coco Montoya - Dirty Deal
DYEAR=2007
DGENRE=Blues
TTITLE0=Last Dirty Deal
TTITLE1=Three Sides Of Every Story
TTITLE2=Love Gotcha
TTITLE3=How Do You Sleep At Night?
TTITLE4=It Takes Time
TTITLE5=It's My Own Tears
TTITLE6=Coin Operated Love
TTITLE7=Clean Slate
TTITLE8=Put The Shoe On The Other Foot
TTITLE9=It's All Your Fault
TTITLE10=Ain't No Brakeman
EXTD=
EXTT0=
EXTT1=
EXTT2=
EXTT3=
EXTT4=
EXTT5=
EXTT6=
EXTT7=
EXTT8=
EXTT9=
EXTT10=
PLAYORDER=
